HIERARCHY
ROOT Hips
{
    OFFSET 0.000000 0.000000 0.000000
    CHANNELS 6 Xposition Yposition Zposition Zrotation Xrotation Yrotation
    JOINT Spine
    {
        OFFSET -0.000000 7.790525 0.000000
        CHANNELS 3 Zrotation Xrotation Yrotation
        JOINT Spine1
        {
            OFFSET -0.000000 20.430923 0.000000
            CHANNELS 3 Zrotation Xrotation Yrotation
            JOINT Neck
            {
                OFFSET -0.000000 22.331051 0.000000
                CHANNELS 3 Zrotation Xrotation Yrotation
                JOINT Head
                {
                    OFFSET -0.000000 14.725992 1.900128
                    CHANNELS 3 Zrotation Xrotation Yrotation
                    End Site
                    {
                        OFFSET -0.000000 19.001280 0.000000
                    }
                }
            }
            JOINT LeftShoulder
            {
                OFFSET 3.812537 19.294388 -0.177115
                CHANNELS 3 Zrotation Xrotation Yrotation
                JOINT LeftArm
                {
                    OFFSET 9.162892 0.000000 0.000000
                    CHANNELS 3 Zrotation Xrotation Yrotation
                    JOINT LeftForeArm
                    {
                        OFFSET 30.063545 0.000000 0.000000
                        CHANNELS 3 Zrotation Xrotation Yrotation
                        JOINT LeftHand
                        {
                            OFFSET 28.325521 0.000000 0.000000
                            CHANNELS 3 Zrotation Xrotation Yrotation
                            End Site
                            {
                                OFFSET 14.250961 0.000000 0.000000
                            }
                        }
                    }
                }
            }
            JOINT RightShoulder
            {
                OFFSET -3.786349 19.294388 -0.177115
                CHANNELS 3 Zrotation Xrotation Yrotation
                JOINT RightArm
                {
                    OFFSET -9.162892 0.000000 0.000000
                    CHANNELS 3 Zrotation Xrotation Yrotation
                    JOINT RightForeArm
                    {
                        OFFSET -30.063545 0.000000 0.000000
                        CHANNELS 3 Zrotation Xrotation Yrotation
                        JOINT RightHand
                        {
                            OFFSET -28.325521 0.000000 0.000000
                            CHANNELS 3 Zrotation Xrotation Yrotation
                            End Site
                            {
                                OFFSET -14.250961 0.000000 0.000000
                            }
                        }
                    }
                }
            }
        }
    }
    JOINT LeftUpLeg
    {
        OFFSET 9.500640 0.000000 0.000000
        CHANNELS 3 Zrotation Xrotation Yrotation
        JOINT LeftLeg
        {
            OFFSET -0.000000 -41.640518 0.000000
            CHANNELS 3 Zrotation Xrotation Yrotation
            JOINT LeftFoot
            {
                OFFSET -0.000000 -37.182968 0.000000
                CHANNELS 3 Zrotation Xrotation Yrotation
                JOINT LeftToeBase
                {
                    OFFSET -0.000000 -6.175416 14.250961
                    CHANNELS 3 Zrotation Xrotation Yrotation
                    End Site
                    {
                        OFFSET -0.000000 0.000000 3.800256
                    }
                }
            }
        }
    }
    JOINT RightUpLeg
    {
        OFFSET -9.500640 0.000000 0.000000
        CHANNELS 3 Zrotation Xrotation Yrotation
        JOINT RightLeg
        {
            OFFSET -0.000000 -41.640518 0.000000
            CHANNELS 3 Zrotation Xrotation Yrotation
            JOINT RightFoot
            {
                OFFSET -0.000000 -37.182968 0.000000
                CHANNELS 3 Zrotation Xrotation Yrotation
                JOINT RightToeBase
                {
                    OFFSET -0.000000 -6.175416 14.250961
                    CHANNELS 3 Zrotation Xrotation Yrotation
                    End Site
                    {
                        OFFSET -0.000000 0.000000 3.800256
                    }
                }
            }
        }
    }
}
MOTION
Frames:    14
Frame Time:    0.010000
31.851542    89.513107    75.587593    2.030167    0.430161    21.534468    -0.749278    -7.581989    -1.360623    5.725656    6.220716    -0.748371    -1.149610    19.004583    -0.885623    -4.534636    -9.571521    -1.052600    -2.757427    5.886795    1.506652    -63.261509    57.143040    -16.499949    15.111750    -22.728540    -5.659124    -25.909473    -20.467205    -7.298183    0.506141    7.893375    -4.509141    24.794537    80.498558    42.916306    -16.596346    -26.906649    4.003199    24.306704    -24.141375    11.478564    4.867342    -4.475985    1.346489    0.188332    11.672512    -2.270651    -8.344181    -3.617516    9.785286    0.000000    0.000000    0.000000    -1.623861    3.525978    -5.095329    2.265751    6.525702    -10.810436    -2.035928    -10.228415    -9.325779    0.000000    0.000000    0.000000    
31.868786    89.513680    75.575180    2.026587    0.416988    21.431686    -0.809794    -7.590165    -1.359066    5.814361    6.253416    -0.753639    -1.126910    18.919855    -0.981299    -4.510176    -9.445559    -1.139943    -2.756067    5.887969    1.454221    -63.098103    57.310040    -16.687000    15.202477    -22.810289    -5.633840    -25.658108    -20.552341    -7.356977    0.471880    7.886814    -4.588896    24.237671    80.686684    43.407070    -16.615368    -27.009657    3.971719    24.367954    -24.216721    11.618142    4.851776    -4.437572    1.346449    0.173071    11.647022    -2.223297    -7.857038    -3.352000    10.408188    0.000000    0.000000    0.000000    -1.638572    3.521963    -5.067812    2.261548    6.527660    -10.750536    -0.777818    -10.009523    -9.217925    0.000000    0.000000    0.000000    
31.890768    89.514297    75.559013    2.013683    0.404097    21.335667    -0.675513    -7.537538    -1.421631    5.522006    6.139591    -0.755204    -0.982368    19.097864    -1.058929    -4.382524    -9.556661    -1.188796    -2.569777    5.950037    1.472723    -63.041046    57.558174    -16.830036    15.516356    -22.837511    -5.398472    -25.884714    -20.555241    -7.476238    0.675754    7.417054    -4.381303    26.230104    81.324677    41.247612    -16.757248    -27.162479    3.870108    24.414194    -24.373335    11.640205    4.853220    -4.407747    1.369883    0.173623    11.628586    -2.180927    -7.775109    -3.339159    10.306776    0.000000    0.000000    0.000000    -1.653118    3.511816    -5.071608    2.266094    6.529069    -10.677358    -0.092009    -9.950291    -9.261895    0.000000    0.000000    0.000000    
31.908369    89.503395    75.559509    1.976405    0.342303    21.251711    -0.641814    -7.511458    -1.434278    5.525534    6.155228    -0.761131    -0.964079    19.093130    -1.086231    -4.308304    -9.530949    -1.213910    -2.537057    5.889494    1.402834    -63.049442    57.359501    -16.755539    15.306404    -22.791176    -5.597766    -25.696716    -20.532469    -7.346126    0.639263    7.318794    -4.464337    30.648180    80.464622    36.700203    -16.052668    -26.665152    4.729362    23.859280    -23.931704    11.117303    4.929247    -4.318602    1.368004    0.148211    11.610102    -2.157441    -8.269142    -3.760867    9.873351    0.000000    0.000000    0.000000    -1.613748    3.562811    -5.049772    2.268033    6.503114    -10.641283    -2.067235    -10.186795    -9.252795    0.000000    0.000000    0.000000    
31.916798    89.505402    75.524361    1.962785    0.388384    21.178179    -0.739190    -7.532544    -1.537491    5.638231    6.134016    -0.798665    -0.924999    19.150826    -1.157241    -4.395584    -9.574378    -1.273687    -2.547761    5.851232    1.433535    -63.077053    57.185162    -16.694170    15.157283    -22.710239    -5.771658    -25.642908    -20.444609    -7.319315    0.577346    7.380315    -4.476864    29.906101    80.584595    37.477741    -16.219893    -26.767441    4.554361    24.189512    -23.977060    11.344728    4.912575    -4.377835    1.391003    0.150410    11.624030    -2.124440    -8.275517    -3.755545    9.866644    0.000000    0.000000    0.000000    -1.642761    3.472977    -5.053198    2.272389    6.540395    -10.546280    -2.408881    -10.063770    -9.044561    0.000000    0.000000    0.000000    
31.918509    89.515045    75.511078    1.963971    0.435264    21.057089    -0.852557    -7.588935    -1.465175    5.725959    6.132030    -0.776212    -1.086548    19.184883    -1.162985    -3.947257    -9.523602    -1.347397    -2.362587    5.957704    0.870541    -63.528191    56.742294    -16.348682    15.192616    -22.699272    -5.903229    -25.515455    -20.446724    -7.209456    0.813346    7.439539    -4.554076    27.084297    81.347122    40.105721    -16.846132    -27.253424    3.984472    24.466684    -24.457655    11.567369    4.897089    -4.397959    1.439801    0.106907    11.587388    -2.043615    -7.734558    -3.382405    10.352436    0.000000    0.000000    0.000000    -1.656411    3.384453    -5.003982    2.160314    6.670630    -10.316082    -1.868455    -10.267789    -9.308036    0.000000    0.000000    0.000000    
31.918509    89.515045    75.511078    1.963971    0.435264    21.057089    -0.852557    -7.588935    -1.465175    5.725959    6.132030    -0.776212    -1.086548    19.184883    -1.162985    -3.947257    -9.523602    -1.347397    -2.362587    5.957704    0.870541    -63.528191    56.742294    -16.348682    15.192616    -22.699272    -5.903229    -25.515455    -20.446724    -7.209456    0.813346    7.439539    -4.554076    27.084297    81.347122    40.105721    -16.846132    -27.253424    3.984472    24.466684    -24.457655    11.567369    4.897089    -4.397959    1.439801    0.106907    11.587388    -2.043615    -7.734558    -3.382405    10.352436    0.000000    0.000000    0.000000    -1.656411    3.384453    -5.003982    2.160314    6.670630    -10.316082    -1.868455    -10.267789    -9.308036    0.000000    0.000000    0.000000    
31.918509    89.515045    75.511078    1.963971    0.435264    21.057089    -0.852557    -7.588935    -1.465175    5.725959    6.132030    -0.776212    -1.086548    19.184883    -1.162985    -3.947257    -9.523602    -1.347397    -2.362587    5.957704    0.870541    -63.528191    56.742294    -16.348682    15.192616    -22.699272    -5.903229    -25.515455    -20.446724    -7.209456    0.813346    7.439539    -4.554076    27.084297    81.347122    40.105721    -16.846132    -27.253424    3.984472    24.466684    -24.457655    11.567369    4.897089    -4.397959    1.439801    0.106907    11.587388    -2.043615    -7.734558    -3.382405    10.352436    0.000000    0.000000    0.000000    -1.656411    3.384453    -5.003982    2.160314    6.670630    -10.316082    -1.868455    -10.267789    -9.308036    0.000000    0.000000    0.000000    
31.918509    89.515045    75.511078    1.963971    0.435264    21.057089    -0.852557    -7.588935    -1.465175    5.725959    6.132030    -0.776212    -1.086548    19.184883    -1.162985    -3.947257    -9.523602    -1.347397    -2.362587    5.957704    0.870541    -63.528191    56.742294    -16.348682    15.192616    -22.699272    -5.903229    -25.515455    -20.446724    -7.209456    0.813346    7.439539    -4.554076    27.084297    81.347122    40.105721    -16.846132    -27.253424    3.984472    24.466684    -24.457655    11.567369    4.897089    -4.397959    1.439801    0.106907    11.587388    -2.043615    -7.734558    -3.382405    10.352436    0.000000    0.000000    0.000000    -1.656411    3.384453    -5.003982    2.160314    6.670630    -10.316082    -1.868455    -10.267789    -9.308036    0.000000    0.000000    0.000000    
31.918509    89.515045    75.511078    1.963971    0.435264    21.057089    -0.852557    -7.588935    -1.465175    5.725959    6.132030    -0.776212    -1.086548    19.184883    -1.162985    -3.947257    -9.523602    -1.347397    -2.362587    5.957704    0.870541    -63.528191    56.742294    -16.348682    15.192616    -22.699272    -5.903229    -25.515455    -20.446724    -7.209456    0.813346    7.439539    -4.554076    27.084297    81.347122    40.105721    -16.846132    -27.253424    3.984472    24.466684    -24.457655    11.567369    4.897089    -4.397959    1.439801    0.106907    11.587388    -2.043615    -7.734558    -3.382405    10.352436    0.000000    0.000000    0.000000    -1.656411    3.384453    -5.003982    2.160314    6.670630    -10.316082    -1.868455    -10.267789    -9.308036    0.000000    0.000000    0.000000    
31.918509    89.515045    75.511078    1.963971    0.435264    21.057089    -0.852557    -7.588935    -1.465175    5.725959    6.132030    -0.776212    -1.086548    19.184883    -1.162985    -3.947257    -9.523602    -1.347397    -2.362587    5.957704    0.870541    -63.528191    56.742294    -16.348682    15.192616    -22.699272    -5.903229    -25.515455    -20.446724    -7.209456    0.813346    7.439539    -4.554076    27.084297    81.347122    40.105721    -16.846132    -27.253424    3.984472    24.466684    -24.457655    11.567369    4.897089    -4.397959    1.439801    0.106907    11.587388    -2.043615    -7.734558    -3.382405    10.352436    0.000000    0.000000    0.000000    -1.656411    3.384453    -5.003982    2.160314    6.670630    -10.316082    -1.868455    -10.267789    -9.308036    0.000000    0.000000    0.000000    
31.918509    89.515045    75.511078    1.963971    0.435264    21.057089    -0.852557    -7.588935    -1.465175    5.725959    6.132030    -0.776212    -1.086548    19.184883    -1.162985    -3.947257    -9.523602    -1.347397    -2.362587    5.957704    0.870541    -63.528191    56.742294    -16.348682    15.192616    -22.699272    -5.903229    -25.515455    -20.446724    -7.209456    0.813346    7.439539    -4.554076    27.084297    81.347122    40.105721    -16.846132    -27.253424    3.984472    24.466684    -24.457655    11.567369    4.897089    -4.397959    1.439801    0.106907    11.587388    -2.043615    -7.734558    -3.382405    10.352436    0.000000    0.000000    0.000000    -1.656411    3.384453    -5.003982    2.160314    6.670630    -10.316082    -1.868455    -10.267789    -9.308036    0.000000    0.000000    0.000000    
31.918509    89.515045    75.511078    1.963971    0.435264    21.057089    -0.852557    -7.588935    -1.465175    5.725959    6.132030    -0.776212    -1.086548    19.184883    -1.162985    -3.947257    -9.523602    -1.347397    -2.362587    5.957704    0.870541    -63.528191    56.742294    -16.348682    15.192616    -22.699272    -5.903229    -25.515455    -20.446724    -7.209456    0.813346    7.439539    -4.554076    27.084297    81.347122    40.105721    -16.846132    -27.253424    3.984472    24.466684    -24.457655    11.567369    4.897089    -4.397959    1.439801    0.106907    11.587388    -2.043615    -7.734558    -3.382405    10.352436    0.000000    0.000000    0.000000    -1.656411    3.384453    -5.003982    2.160314    6.670630    -10.316082    -1.868455    -10.267789    -9.308036    0.000000    0.000000    0.000000    
31.918509    89.515045    75.511078    1.963971    0.435264    21.057089    -0.852557    -7.588935    -1.465175    5.725959    6.132030    -0.776212    -1.086548    19.184883    -1.162985    -3.947257    -9.523602    -1.347397    -2.362587    5.957704    0.870541    -63.528191    56.742294    -16.348682    15.192616    -22.699272    -5.903229    -25.515455    -20.446724    -7.209456    0.813346    7.439539    -4.554076    27.084297    81.347122    40.105721    -16.846132    -27.253424    3.984472    24.466684    -24.457655    11.567369    4.897089    -4.397959    1.439801    0.106907    11.587388    -2.043615    -7.734558    -3.382405    10.352436    0.000000    0.000000    0.000000    -1.656411    3.384453    -5.003982    2.160314    6.670630    -10.316082    -1.868455    -10.267789    -9.308036    0.000000    0.000000    0.000000    
